/* XPM */
static char *rott[] = {
/* columns rows colors chars-per-pixel */
"32 32 195 2 ",
"   c #030202",
".  c #090403",
"X  c #0C0A05",
"o  c #06060A",
"O  c #0A070C",
"+  c #0D0B0B",
"@  c #1A0000",
"#  c #150D03",
"$  c #1B0F04",
"%  c #120E0F",
"&  c #161204",
"*  c #191405",
"=  c #1F1E0F",
"-  c #0B0A12",
";  c #0E0D1B",
":  c #1F0A14",
">  c #100E1C",
",  c #151111",
"<  c #1A1411",
"1  c #1F1816",
"2  c #14111D",
"3  c #350303",
"4  c #380707",
"5  c #211B03",
"6  c #321C03",
"7  c #2A0A15",
"8  c #211A17",
"9  c #251D19",
"0  c #312504",
"q  c #303005",
"w  c #252414",
"e  c #2B231C",
"r  c #2E2A19",
"t  c #32271F",
"y  c #322A1D",
"u  c #37311E",
"i  c #3A351F",
"p  c #3E381F",
"a  c #0D0C25",
"s  c #0C0C2C",
"d  c #100720",
"f  c #100F22",
"g  c #121125",
"h  c #14132B",
"j  c #0F0F32",
"k  c #110B33",
"l  c #1D0F38",
"z  c #151433",
"x  c #181533",
"c  c #1E1B35",
"v  c #14143D",
"b  c #1A1A3D",
"n  c #200A25",
"m  c #330720",
"M  c #21122F",
"N  c #211233",
"B  c #291736",
"V  c #3B1539",
"C  c #362921",
"Z  c #3D2D26",
"A  c #480506",
"S  c #48060A",
"D  c #5B0703",
"F  c #650D01",
"G  c #670F0E",
"H  c #7A0302",
"J  c #780906",
"K  c #462C02",
"L  c #463302",
"P  c #4D3B01",
"I  c #543F01",
"U  c #6C0A26",
"Y  c #710B26",
"T  c #6F1232",
"R  c #701334",
"E  c #741B3F",
"W  c #43322A",
"Q  c #4B3A2E",
"!  c #513A2F",
"~  c #4E3B31",
"^  c #513D32",
"/  c #6A3229",
"(  c #414303",
")  c #544601",
"_  c #554B01",
"`  c #624700",
"'  c #645100",
"]  c #7E5900",
"[  c #6A6D00",
"{  c #7D6C00",
"}  c #777900",
"|  c #4C4727",
" . c #4B4827",
".. c #4F452C",
"X. c #4F492A",
"o. c #534727",
"O. c #51452E",
"+. c #52492D",
"@. c #534232",
"#. c #584735",
"$. c #564932",
"%. c #594934",
"&. c #60473D",
"*. c #151544",
"=. c #1A1A46",
"-. c #1B1B4C",
";. c #1D1D51",
":. c #2C1B4B",
">. c #22224C",
",. c #222154",
"<. c #282251",
"1. c #25255B",
"2. c #2C245A",
"3. c #28285E",
"4. c #30285E",
"5. c #292962",
"6. c #2E2E6A",
"7. c #4A1E4A",
"8. c #452658",
"9. c #860301",
"0. c #890000",
"q. c #960619",
"w. c #AD0101",
"e. c #A7030B",
"r. c #B20000",
"t. c #BC0202",
"y. c #B9030E",
"u. c #AB1801",
"i. c #AC0412",
"p. c #A70D1E",
"a. c #BA1713",
"s. c #882401",
"d. c #B62500",
"f. c #A82414",
"g. c #870E21",
"h. c #980D24",
"j. c #970F28",
"k. c #9A0F28",
"l. c #8D1635",
"z. c #A30C21",
"x. c #AC0D21",
"c. c #C60301",
"v. c #CC0303",
"b. c #C4060D",
"n. c #CF0F0C",
"m. c #D30000",
"M. c #DE0101",
"N. c #DA060E",
"B. c #D0130B",
"V. c #CB0916",
"C. c #D10711",
"Z. c #D60813",
"A. c #E20003",
"S. c #EA0000",
"D. c #E5050B",
"F. c #EA0308",
"G. c red",
"H. c #F20800",
"J. c #F80D00",
"K. c #E31600",
"L. c #F21300",
"P. c #D23300",
"I. c #D83500",
"U. c #8B5D00",
"Y. c #A94800",
"T. c #B94300",
"R. c #B34D00",
"E. c #A65900",
"W. c #AC5C00",
"Q. c #896C00",
"!. c #976F00",
"~. c #8D7700",
"^. c #9E7600",
"/. c #917A00",
"(. c #9E7A00",
"). c #A96500",
"_. c #CF4400",
"`. c #CE6A00",
"'. c #D56600",
"]. c #918D00",
"[. c #999800",
"{. c #A08000",
"}. c #AF8400",
"|. c #A28D00",
" X c #A49300",
".X c #A59C00",
"XX c #AE9C00",
"oX c #A6A200",
"OX c #A8A400",
"+X c #AAAC00",
"@X c #ACB200",
"#X c #AFC000",
"$X c #B2CA00",
"%X c #B4D300",
"&X c None",
/* pixels */
"&X&X&X&X&X&X&X&X&X&X&X&X&X&X&X    . &X&X&X&X&X&X&X&X&X&X&X&X&X&X",
"&X&X&X&X&X&X&X&X&X&X&X&X&X&X  ^ &.  &X&X&X&X&X&X&X&X&X&X&X&X&X&X",
"&X&X&X&X&X&X&X&X&X&X&X&X&X&X1 Z e C . &X&X&X&X&X&X&X&X&X&X&X&X&X",
"&X&X&X&X&X&X&X&X&X&X&X&X&X  ~ O o ~ . &X&X&X&X&X&X&X&X&X&X&X&X&X",
"&X&X&X&X&X&X&X&X&X&X&X&X&X< Z 2 b 1 C . &X&X&X&X&X&X&X&X&X&X&X&X",
"&X&X&X&X&X&X&X&X&X&X&X&X  ! + b c   ~ . &X&X&X&X&X&X&X&X&X&X&X&X",
"&X&X&X&X&X&X&X&X&X&X&X&X< W > 2   x 8 C . &X&X&X&X&X&X&X&X&X&X&X",
"&X&X&X&X&X&XG.G.&X&X&X  ^ + >.. X >.  ^ . &X&X&X&X&X&X&X&X&X&X&X",
"&X&X&X&X&XG.G.&X&X&X&X< W - ,.* L x h 9 C   &X&X&X&X&X&X&X&X&X&X",
"&X&X&X&X&XG.&X&XG.&X  ~ % >.c ( { % 1.  @.. &X&X&X&X&X&X&X&X&X&X",
"&X&X&X&X&XG.&XG.G.&X< Q - 6.+ Q.oX  1.h 9 y   &X&X&X&X&X&X&X&X&X",
"&X&X&X&X&X&XG.&X&Xt./ , =.3.X .X#Xq b ,.  O.X &X&X&X&X&X&X&X&X&X",
"&X&X&X&X&X&X&X&XA.v.n.S 5.=.0 OX%X[ 2 1.f e y . &X&X&X&X&X&X&X&X",
"&X&X&X&X&X&X&X&Xw.! t.g.5.2 ` .X#X[.  1.;.  O.  &X&X&X&X&X&X&X&X",
"&X&X&X&X&X&X&X&X< a.v.8.l.3 U. XOX.X* =.,.a e t . &X&X&X&X&X&X&X",
"&X&X&X&X&X&X&X  ~ G B Z.p.c.Y.(.|.{.K h ,.=.X O.. &X&X&X&X&X&X&X",
"&X&X&X&X&X&X&X< ~ o 4.D.<.w.d.T.P.R.$ z ;.;.; r r o &X&X&X&X&X&X",
"&X&X&X&X&X&X. Q 8 x 5.E D.b.@ S.m.0.: ,.;.;.*.. O.  &X&X&X&X&X&X",
"&X&X&X&X&X&X, ^ o 1.5.3.3.2.V.x.j.N.F.T ;.-.;.- y r   &X&X&X&X&X",
"&X&X&X&X&X  ~ 9 z 5.5.1.3.7.x.,.x.D.z.h.T -.-.z O O.. &X&X&X&X&X",
"&X&X&X&X&X< @.. 1.3.x       ; h.C.M t.0.@ - -.=.O u y   &X&X&X&X",
"&X&X&X&X  ~ 9 h 3.-.X /.{.!.. V :.H H.E.^.5 s *.j O X.  &X&X&X&X",
"&X&X&X&X< @.  1.1.O } @XOX XI > N m.E.I.J._.X z *.o u r   &X&X&X",
"&X&X&X  Q e g 1.2 ( $X%X@X.X' ; j 6 W.L.XX'.~.D Y s O X.X &X&X&X",
"&X&X&X< #.. ,.b & [.@X@X]._ # f z   K K.}.+X`.u.7 v o i r   &X&X",
"&X&X  Q e f ,.. ] Q.) * . f v -.-.*.a 4 D s.H.).J n a +  .. &X&X",
"&X&X< #.. ;.- # # . f v ;.-.-.-.=.*.*.*.z v.A 0.F t.k   i r . &X",
"&X  Q t > ,.O f =.,.;.;.;.-.-.-.-.*.*.*.*.v U y.e.M.m d J  .. &X",
"&XX %.. -.,.1.,.;.;.;.-.-.-.-.*.*.*.*.*.v v l q.A.i.k y.w.p =   ",
"&X  e                                           H . r.r.  w   &X",
"&X&X  ~ #.$.$.$.$.$.$.O.O.$.O.+.+.O.O.X.X.X.X.X.X.f.B.o. .+ &X&X",
"&X&X&X                                            . .       &X&X"
};
